HIERARCHY
ROOT pelvis
{
  OFFSET 0 100 0
  CHANNELS 6 Xposition Yposition Zposition Zrotation Xrotation Yrotation
  JOINT pelvis_right_femur
  {
    OFFSET -10.78128 -3.44521 -0.5502486
    CHANNELS 3 Zrotation Xrotation Yrotation
    JOINT right_femur_tibia
    {
      OFFSET -0.8047443 -44.0398 -0.1307829
      CHANNELS 3 Zrotation Xrotation Yrotation
      JOINT right_tibia_foot
      {
        OFFSET 3.006224 -47.83518 -5
        CHANNELS 3 Zrotation Xrotation Yrotation
        End Site
        {
          OFFSET 0 -5 15
        }
      }
    }
  }
  JOINT pelvis_left_femur
  {
    OFFSET 10.78128 -3.44521 -0.5502486
    CHANNELS 3 Zrotation Xrotation Yrotation
    JOINT left_femur_tibia
    {
      OFFSET 0.8047443 -44.0398 -0.1307829
      CHANNELS 3 Zrotation Xrotation Yrotation
      JOINT left_tibia_foot
      {
        OFFSET -4.370144 -48.10324 -4.275266
        CHANNELS 3 Zrotation Xrotation Yrotation
        End Site
        {
          OFFSET 0 -5 15
        }
      }
    }
  }
  JOINT pelvis_spine1
  {
    OFFSET 0 6.468898 -3.129235
    CHANNELS 3 Zrotation Xrotation Yrotation
    JOINT spine1
    {
      OFFSET 0 23.15396 4.99043
      CHANNELS 3 Zrotation Xrotation Yrotation
      JOINT spine2
      {
        OFFSET 0 20.79997 -5.064912
        CHANNELS 3 Zrotation Xrotation Yrotation
        JOINT neck
        {
          OFFSET 0 14.38658 9.616178
          CHANNELS 3 Zrotation Xrotation Yrotation
          End Site
          {
            OFFSET 0 20 0
          }
        }
      }
      JOINT right_manubrium
      {
        OFFSET -5.722621 16.35077 3.967754
        CHANNELS 3 Zrotation Xrotation Yrotation
        JOINT right_clavicle
        {
          OFFSET -13.16364 1.694482 -4.693211
          CHANNELS 3 Zrotation Xrotation Yrotation
          JOINT right_humerus
          {
            OFFSET -28.5034 -0.3100689 -2.792744
            CHANNELS 3 Zrotation Xrotation Yrotation
            JOINT right_radius
            {
              OFFSET -25.15693 0.02248979 -1.271978
              CHANNELS 3 Zrotation Xrotation Yrotation
              End Site
              {
                OFFSET -15 0 0
              }
            }
          }
        }
      }
      JOINT left_manubrium
      {
        OFFSET 5.722621 16.35077 3.967754
        CHANNELS 3 Zrotation Xrotation Yrotation
        JOINT left_clavicle
        {
          OFFSET 13.16364 1.694482 -4.693211
          CHANNELS 3 Zrotation Xrotation Yrotation
          JOINT left_humerus
          {
            OFFSET 29.39168 -1.063119 -2.237045
            CHANNELS 3 Zrotation Xrotation Yrotation
            JOINT left_radius
            {
              OFFSET 24.59957 -0.9528479 0.9047498
              CHANNELS 3 Zrotation Xrotation Yrotation
              End Site
              {
                OFFSET 15 -0 -0
              }
            }
          }
        }
      }
    }
  }
}
MOTION
Frames: 13
Frame Time: 0.0416666666667
0 103.5113 0 1.15948 -3.356976 -0.05556852 3.035336 -13.23421 8.427509 -0 39.50225 -0 -6.838234 -16.58102 -4.61957 -6.511221 12.06816 -23.32814 -0 5.681934 -0 8.533157 -15.3217 27.02073 -1.855628 -2.261301 5.424339 2.661655 9.071619 -7.543352 1.072117 20.88607 6.015464 3.356903 -24.6724 7.837811 5.677695 -19.59846 10.96564 84.58166 35.07581 -18.59483 -0 0 16.6939 -5.236775 5.91045 3.870611 6.085428 -20.49766 -1.004111 -93.99539 25.89344 23.38742 0 0 -16.63356 8.725414 13.80513 4.106259
0.2878422 103.5538 1.550233 1.068554 -2.595549 -0.1542723 3.386605 -14.71866 9.007547 -0 39.44443 -0 -6.168511 -17.3242 -4.614218 -6.617094 12.14324 -23.66214 -0 5.350309 -0 8.388096 -15.97874 27.01263 -1.918919 -2.276549 5.53882 2.561348 9.012482 -7.417503 1.080765 21.00275 5.935363 3.343118 -24.44692 7.734904 5.661965 -19.70438 10.91266 84.23433 35.06445 -18.11515 -0 0 16.99761 -5.433159 5.862589 3.959274 5.977649 -20.34761 -0.9926736 -94.22948 26.12725 23.77579 0 0 -16.1337 8.368416 13.92962 4.499782
0.5526883 103.4533 3.226863 0.8535483 -1.452761 -0.1819284 3.69661 -18.11253 8.535553 -0 36.6082 -0 -5.767693 -15.37252 -3.844317 -6.735738 12.37565 -23.36877 -0 5.187718 -0 6.732935 -18.28284 26.21298 -1.737546 -2.184984 5.14739 2.79367 9.089349 -7.741275 1.088867 20.76576 6.264134 3.357535 -25.09972 8.17145 5.689796 -19.2803 11.01874 85.3459 35.27566 -19.5374 -0 0 15.84887 -5.198288 6.391583 3.914618 6.20867 -20.69615 -0.984099 -93.65437 26.23469 22.70736 0 0 -17.91671 8.57024 13.75124 4.5641
0.8017259 103.1827 5.087405 0.659962 -0.5437159 -0.1277957 4.052584 -21.0481 7.95239 -0 33.52518 -0 -5.54621 -13.60026 -3.252801 -6.771785 12.53665 -22.72881 -0 5.070135 -0 5.777953 -19.92556 25.35254 -1.62997 -2.116335 4.901355 2.92913 9.147492 -7.93165 1.092655 20.62205 6.482927 3.369174 -25.48796 8.452044 5.699072 -19.0029 11.08961 86.03419 35.41834 -20.37292 -0 0 15.09637 -5.183487 6.814246 3.956154 6.343986 -20.90972 -0.9818184 -93.24567 26.23822 21.99461 0 0 -19.01604 8.704464 13.61424 4.589186
1.04092 102.7342 7.211675 0.4331363 0.4611359 0.01113177 4.597886 -24.26304 7.342505 -0 29.79863 -0 -5.301962 -11.86494 -2.729622 -6.767176 12.72147 -21.76235 -0 5.040466 -0 5.31713 -21.29017 24.33853 -1.499462 -2.036648 4.604525 3.092604 9.212328 -8.163837 1.099919 20.4512 6.742503 3.37986 -25.95301 8.792509 5.709671 -18.67092 11.17146 86.8748 35.58253 -21.39069 -0 0 14.19208 -5.158434 7.332823 4.005909 6.499296 -21.16397 -0.9761362 -92.76627 26.28196 21.15322 0 0 -20.35346 8.820606 13.46006 4.685838
1.274446 102.1092 9.692713 0.1793379 1.391461 0.2341139 5.196449 -27.29143 6.618269 -0 25.75457 -0 -5.221284 -9.978255 -2.250314 -6.703019 12.93396 -20.50763 -0 5.341544 -0 5.181289 -22.22657 23.17456 -1.386473 -1.955703 4.332995 3.23372 9.280544 -8.367281 1.104918 20.2993 6.987391 3.392235 -26.35366 9.104753 5.713688 -18.35797 11.24946 87.63521 35.73996 -22.27567 -0 0 13.34187 -5.245443 7.879673 4.106953 6.633126 -21.39514 -0.9760198 -92.28501 26.2597 20.34468 0 0 -21.55561 8.93908 13.29835 4.750246
1.507308 101.343 12.63346 -0.1351353 2.307577 0.5404844 5.851475 -30.09926 5.82483 -0 21.56739 -0 -5.34364 -7.906464 -1.772504 -6.570831 13.15269 -19.02245 -0 6.194128 -0 5.172873 -22.71145 21.77535 -1.287342 -1.874157 4.080243 3.353706 9.34408 -8.547358 1.109969 20.16886 7.220639 3.404039 -26.69776 9.396212 5.713837 -18.0589 11.32004 88.33536 35.89907 -23.06215 -0 0 12.53519 -5.419644 8.455081 4.248641 6.744335 -21.60312 -0.9797599 -91.82049 26.24511 19.58193 0 0 -22.66139 9.000831 13.14979 4.8705
1.744158 100.5011 16.13253 -0.5272229 3.166009 0.9257527 6.514307 -32.42525 4.994847 -0 17.59849 -0 -5.75773 -5.657816 -1.27481 -6.351584 13.33762 -17.39722 -0 7.897371 -0 5.062763 -22.63823 20.08653 -1.211593 -1.792704 3.862492 3.440166 9.403099 -8.687609 1.112934 20.07076 7.43183 3.416918 -26.9513 9.64608 5.709079 -17.78758 11.38041 88.92135 36.05925 -23.67891 -0 0 11.81527 -5.715883 9.044532 4.442937 6.825546 -21.77504 -0.9916149 -91.38406 26.21033 18.89448 0 0 -23.58695 9.014654 13.01584 5.015435
1.98912 99.68743 20.2726 -1.007057 3.921509 1.377736 7.159845 -34.00207 4.213569 -0 14.26115 -0 -6.503179 -3.351767 -0.7583237 -6.025711 13.43131 -15.75087 -0 10.79404 -0 4.623289 -21.89074 18.08447 -1.163069 -1.711948 3.687693 3.485398 9.453993 -8.779526 1.113603 20.01279 7.616049 3.430727 -27.09707 9.844983 5.699839 -17.55151 11.42741 89.36749 36.22358 -24.09585 -0 0 11.20686 -6.144893 9.638686 4.693136 6.871403 -21.90166 -1.013334 -90.99341 26.17521 18.31059 0 0 -24.29727 8.955231 12.90692 5.211237
2.24411 99.03906 25.0981 -1.549891 4.451951 1.864992 7.749798 -34.47796 3.581744 -0 12.01594 -0 -7.568376 -1.200677 -0.2684965 -5.582468 13.35872 -14.22105 -0 15.24021 -0 3.689938 -20.34913 15.8572 -1.146848 -1.632004 3.566605 3.480667 9.495656 -8.812048 1.111023 20.00218 7.767618 3.44609 -27.11491 9.981021 5.6854 -17.35993 11.45908 89.6396 36.39243 -24.26993 -0 0 10.73918 -6.727497 10.22675 5.007098 6.877096 -21.97309 -1.047314 -90.66112 26.13657 17.85525 0 0 -24.74453 8.815091 12.82601 5.456766
2.506518 98.71413 30.58854 -2.082012 4.569194 2.325403 8.235049 -33.50115 3.192949 -0 11.23425 -0 -8.8538 0.5184281 0.0984956 -5.034861 13.00704 -12.9295 -0 21.50266 -0 2.236054 -17.96061 13.64502 -1.166528 -1.553364 3.510101 3.417874 9.526188 -8.774829 1.104911 20.04515 7.881245 3.462927 -26.98881 10.04474 5.66463 -17.22306 11.4736 89.70664 36.56351 -24.16315 -0 0 10.4421 -7.479035 10.79708 5.39138 6.837565 -21.97852 -1.094615 -90.40393 26.10169 17.55866 0 0 -24.88921 8.577802 12.77637 5.765613
2.765427 98.86071 36.63034 -2.476037 4.044921 2.664082 8.547819 -30.83047 3.074666 -0 11.99188 -0 -10.17018 1.552697 0.2186354 -4.431544 12.19529 -11.92209 -0 29.56291 -0 0.4368292 -14.84385 11.83125 -1.224879 -1.477031 3.530766 3.289489 9.544168 -8.657209 1.095341 20.14626 7.951111 3.480751 -26.70614 10.02781 5.63529 -17.15339 11.46992 89.53661 36.7291 -23.73629 -0 0 10.34878 -8.412107 11.335 5.852295 6.747837 -21.90606 -1.154883 -90.24042 26.0746 17.45468 0 0 -24.6933 8.229604 12.75721 6.148965
2.998553 99.56671 43.00419 -2.591572 2.716521 2.780452 8.629702 -26.49885 3.147668 -0 13.85406 -0 -11.28696 1.781104 0.01801093 -3.845838 10.6426 -11.11232 -0 38.86219 -0 -1.340716 -11.37375 10.81128 -1.322626 -1.40497 3.641854 3.089872 9.548183 -8.449932 1.083181 20.30732 7.971416 3.498143 -26.26176 9.925287 5.594098 -17.16532 11.44787 89.10228 36.87471 -22.95686 -0 0 10.49321 -9.530245 11.82318 6.393375 6.60324 -21.74346 -1.225386 -90.19241 26.06257 17.58153 0 0 -24.12955 7.75509 12.76414 6.624014
